<svg width="464" height="300" viewBox="0 0 464 300" fill="none" xmlns="http://www.w3.org/2000/svg" xmlns:xlink="http://www.w3.org/1999/xlink">
<rect x="14.8994" y="0.136963" width="449.906" height="319.73" rx="10" transform="rotate(2.63 14.8994 0.136963)" fill="url(#pattern0_3208_786)"/>
<defs>
<pattern id="pattern0_3208_786" patternContentUnits="objectBoundingBox" width="1" height="1">
<use xlink:href="#image0_3208_786" transform="matrix(0.000347222 0 0 0.000488591 0 -0.000317455)"/>
<path d="M0 8435 l0 -675 4380 0 4380 0 0 675 0 675 -4380 0 -4380 0 0 -675z
m4850 381 c0 -14 10 -30 25 -40 23 -15 25 -22 25 -92 l0 -76 -25 6 -25 6 0
-140 0 -140 -200 0 -200 0 0 199 0 199 46 51 46 51 154 0 154 0 0 -24z m-2140
-295 c0 -14 8 -21 28 -23 24 -3 27 -7 27 -38 0 -33 -2 -35 -37 -38 l-38 -3 0
60 c0 34 4 61 10 61 6 0 10 -9 10 -19z m3170 9 c0 -5 -7 -10 -15 -10 -8 0 -15
5 -15 10 0 6 7 10 15 10 8 0 15 -4 15 -10z m-4030 -25 c0 -20 5 -25 25 -25 20
0 25 5 25 25 0 14 5 25 10 25 6 0 10 -25 10 -55 0 -30 -4 -55 -10 -55 -5 0
-10 9 -10 20 0 15 -7 20 -25 20 -18 0 -25 -5 -25 -20 0 -11 -7 -20 -15 -20
-12 0 -15 13 -15 55 0 42 3 55 15 55 9 0 15 -9 15 -25z m804 -7 c26 -64 28
-78 12 -78 -9 0 -16 5 -16 10 0 14 -33 13 -47 -1 -25 -25 -30 -2 -10 49 23 60
42 66 61 20z m496 11 c9 -16 8 -25 -6 -40 -9 -10 -23 -19 -31 -19 -7 0 -13 -7
-13 -15 0 -8 -4 -15 -10 -15 -5 0 -10 25 -10 55 0 54 0 55 30 55 19 0 33 -7
40 -21z m87 -31 c20 -51 15 -74 -10 -49 -14 14 -47 15 -47 1 0 -5 -7 -10 -16
-10 -16 0 -15 12 12 77 20 47 38 41 61 -19z m93 42 c0 -5 -7 -10 -15 -10 -11
0 -15 -12 -15 -45 0 -25 -4 -45 -10 -45 -5 0 -10 20 -10 45 0 33 -4 45 -15 45
-8 0 -15 5 -15 10 0 6 18 10 40 10 22 0 40 -4 40 -10z m2280 -35 c0 -38 3 -45
20 -45 11 0 20 -4 20 -10 0 -5 -16 -10 -35 -10 l-35 0 0 55 c0 42 3 55 15 55
11 0 15 -12 15 -45z m770 35 c0 -5 -11 -10 -25 -10 -32 0 -32 -14 1 -28 18 -9
24 -19 22 -35 -2 -18 -9 -22 -37 -22 -19 0 -36 6 -38 12 -3 9 5 11 29 7 l33
-6 -35 30 c-29 26 -32 32 -21 46 15 17 71 22 71 6z m-3372 -17 c12 -12 13 -18
4 -21 -14 -4 -16 -42 -2 -42 6 0 10 -4 10 -10 0 -5 -9 -10 -19 -10 -14 0 -20
9 -23 38 -5 36 -1 62 9 62 2 0 12 -8 21 -17z m1100 5 c7 -7 12 -24 12 -40 0
-29 -23 -48 -59 -48 -17 0 -21 -6 -21 -30 0 -20 -5 -30 -15 -30 -12 0 -15 16
-15 80 l0 80 43 0 c24 0 48 -5 55 -12z m151 -55 c12 -38 25 -74 28 -80 3 -8
-3 -13 -15 -13 -11 0 -22 7 -26 15 -3 9 -18 15 -36 15 -20 0 -30 -5 -30 -15 0
-8 -9 -15 -20 -15 -26 0 -25 5 6 89 22 58 30 71 48 71 18 0 26 -12 45 -67z
m161 52 c0 -8 -9 -15 -20 -15 -18 0 -20 -7 -20 -65 0 -58 -2 -65 -20 -65 -18
0 -20 7 -20 65 0 58 -2 65 -20 65 -11 0 -20 7 -20 15 0 12 13 15 60 15 47 0
60 -3 60 -15z m2458 -2 c12 -12 13 -18 4 -21 -14 -4 -16 -42 -2 -42 6 0 10 -5
10 -11 0 -6 -10 -9 -22 -7 -17 2 -24 12 -28 33 -7 41 -34 40 -38 -2 -5 -47
-22 -41 -22 7 0 38 2 40 30 40 17 0 30 5 30 10 0 15 20 12 38 -7z m-4863 -43
c0 -32 -3 -35 -32 -38 -24 -2 -34 2 -43 17 -17 34 4 63 43 59 29 -3 32 -6 32
-38z m143 -2 c4 -43 -15 -53 -20 -11 -4 39 -28 42 -28 4 0 -21 -5 -31 -15 -31
-10 0 -15 10 -15 30 0 17 -4 30 -10 30 -5 0 -10 -13 -10 -30 0 -20 -5 -30 -15
-30 -11 0 -15 11 -15 40 l0 40 63 -2 62 -3 3 -37z m90 20 c3 -13 -3 -18 -22
-18 -14 0 -26 -4 -26 -10 0 -5 12 -10 26 -10 14 0 23 -4 19 -10 -9 -14 -48
-13 -63 2 -16 16 -15 41 0 56 18 18 62 11 66 -10z m616 0 c14 -23 -3 -52 -33
-56 -42 -6 -67 38 -39 66 17 17 58 11 72 -10z m36 -8 c0 -20 5 -30 15 -30 10
0 15 10 15 30 0 20 5 30 15 30 11 0 15 -11 15 -41 l0 -40 -37 3 c-36 3 -38 5
-41 41 -2 21 1 37 7 37 6 0 11 -13 11 -30z m2835 -10 c0 -32 -3 -35 -32 -38
-24 -2 -34 2 -43 17 -17 34 4 63 43 59 29 -3 32 -6 32 -38z m105 -1 c0 -56
-14 -79 -50 -79 -17 0 -30 5 -30 10 0 6 11 10 25 10 14 0 25 5 25 10 0 6 -8
10 -18 10 -22 0 -42 19 -42 40 0 25 21 40 57 40 32 0 33 -1 33 -41z m40 1 c0
-29 -4 -40 -15 -40 -11 0 -15 11 -15 40 0 29 4 40 15 40 11 0 15 -11 15 -40z
m88 -2 c2 -22 -1 -38 -7 -38 -6 0 -11 14 -11 30 0 20 -5 30 -15 30 -10 0 -15
-10 -15 -30 0 -20 -5 -30 -15 -30 -11 0 -15 11 -15 41 l0 40 38 -3 c35 -3 37
-5 40 -40z m452 11 c0 -38 24 -35 28 4 5 42 22 32 22 -13 0 -39 -1 -40 -34
-40 -36 0 -46 12 -46 56 0 15 6 24 15 24 10 0 15 -10 15 -31z m146 16 c4 -8 3
-26 0 -40 -5 -18 -13 -25 -31 -25 -18 0 -25 -5 -25 -20 0 -11 -4 -20 -10 -20
-6 0 -10 27 -10 60 l0 60 35 0 c23 0 38 -6 41 -15z m100 -10 c7 -29 -10 -55
-37 -55 -12 0 -19 -7 -19 -20 0 -11 -7 -20 -15 -20 -12 0 -15 13 -15 60 l0 60
40 0 c34 0 41 -4 46 -25z m94 5 c17 -33 -4 -62 -43 -58 -25 2 -33 8 -35 26 -6
37 5 52 37 52 20 0 34 -7 41 -20z m-2070 -209 c0 -10 7 -21 15 -25 8 -3 15
-17 15 -31 0 -31 -19 -34 -21 -2 l-2 22 -4 -22 c-8 -42 -23 -24 -23 27 0 28 5
50 10 50 6 0 10 -9 10 -19z m260 -31 c0 -27 -4 -50 -10 -50 -5 0 -10 23 -10
50 0 28 5 50 10 50 6 0 10 -22 10 -50z m-1216 34 c23 -9 20 -41 -4 -47 -11 -3
-20 -12 -20 -21 0 -9 -4 -16 -10 -16 -5 0 -10 20 -10 45 0 46 8 53 44 39z
m539 -36 c18 -46 16 -58 -8 -38 -12 10 -19 10 -27 2 -14 -14 -28 -16 -28 -3 0
17 30 81 39 81 4 0 15 -19 24 -42z m57 -3 c0 -25 -4 -45 -10 -45 -11 0 -14 73
-3 83 11 12 13 8 13 -38z m140 35 c0 -5 -4 -10 -10 -10 -5 0 -10 -16 -10 -35
0 -19 -4 -35 -10 -35 -5 0 -10 16 -10 35 0 19 -4 35 -10 35 -5 0 -10 5 -10 10
0 6 14 10 30 10 17 0 30 -4 30 -10z m-579 -7 c6 -42 5 -73 -2 -73 -13 0 -30
47 -23 65 6 16 23 21 25 8z m245 -43 c1 -17 -2 -30 -7 -30 -14 0 -29 47 -22
66 9 23 27 0 29 -36z m-298 -1 c3 -23 -1 -26 -27 -27 -33 -1 -48 22 -30 45 19
23 54 12 57 -18z m146 16 c8 -23 -4 -45 -25 -45 -22 0 -34 22 -25 45 3 8 14
15 25 15 10 0 21 -7 25 -15z m84 -17 c2 -16 -1 -28 -7 -28 -6 0 -12 10 -12 23
l-2 22 -4 -22 c-6 -34 -23 -28 -23 8 0 26 3 30 23 27 16 -2 23 -11 25 -30z
m477 2 c0 -18 -6 -26 -23 -28 -13 -2 -25 3 -28 12 -10 26 4 48 28 44 17 -2 23
-10 23 -28z m87 15 c-2 -5 -10 -9 -18 -7 -8 2 -14 -2 -14 -8 0 -5 9 -10 21
-10 11 0 17 -4 14 -10 -9 -15 -45 -12 -51 5 -10 25 4 47 28 43 13 -2 22 -7 20
-13z m176 -17 c4 -33 -15 -38 -21 -5 l-4 22 -8 -22 c-11 -33 -25 -28 -25 8 0
27 3 30 28 27 21 -2 28 -9 30 -30z m87 2 c0 -18 -6 -26 -23 -28 -13 -2 -25 3
-28 12 -10 26 4 48 28 44 17 -2 23 -10 23 -28z m140 0 c0 -18 -6 -26 -23 -28
-13 -2 -25 3 -28 12 -10 26 4 48 28 44 17 -2 23 -10 23 -28z m93 -12 c-3 -39
-6 -43 -30 -46 -16 -2 -28 1 -28 7 0 6 10 11 23 12 l22 0 -22 9 c-22 9 -31 39
-16 53 3 4 17 7 30 7 22 0 24 -3 21 -42z m70 29 c19 32 22 8 5 -35 -18 -46
-33 -55 -32 -19 0 12 -2 33 -6 47 -6 23 -6 24 8 7 15 -18 16 -18 25 0z"/>
<path d="M4560 8770 l0 -50 -45 0 -45 0 0 -180 0 -180 180 0 180 0 0 130 c0
128 0 130 -20 120 -19 -10 -20 -7 -21 47 -1 32 -3 50 -6 41 -3 -12 -14 -18
-34 -18 -24 0 -29 4 -29 25 0 20 5 25 24 25 27 0 86 52 86 76 0 11 -25 14
-135 14 l-135 0 0 -50z m137 -78 c13 -35 17 -38 49 -34 l35 4 -3 -108 c-3
-105 -4 -109 -26 -112 -19 -3 -26 4 -39 37 l-16 41 -69 0 c-37 0 -68 -3 -68
-7 0 -5 -3 -18 -6 -30 -4 -13 -2 -23 4 -23 5 0 13 10 17 23 6 19 8 20 12 4 6
-23 -14 -47 -38 -47 -27 0 -31 14 -14 54 l15 36 84 0 84 0 7 -30 c7 -33 25
-51 25 -25 0 9 -19 68 -42 131 -30 83 -46 114 -56 112 -16 -3 -69 -134 -59
-144 2 -3 23 -4 44 -2 l40 3 -12 35 -13 35 -11 -29 c-6 -16 -14 -26 -17 -23
-7 6 14 77 26 90 6 7 50 -102 50 -125 0 -10 -127 -11 -133 0 -3 4 9 44 25 90
28 78 31 82 60 82 25 0 32 -6 45 -38z m111 -274 c-3 -40 -5 -43 -32 -43 -16 0
-31 6 -33 13 -3 7 5 12 21 12 22 0 26 4 26 30 0 17 5 30 11 30 6 0 9 -17 7
-42z"/>
<path d="M4741 8603 c0 -21 4 -47 9 -58 6 -14 9 -4 9 38 1 32 -3 57 -9 57 -5
0 -10 -17 -9 -37z"/>
<path d="M4517 8782 c-22 -24 -21 -32 3 -32 15 0 20 7 20 25 0 30 -2 30 -23 7z"/>
<path d="M4822 8758 c-15 -15 -16 -55 -1 -63 5 -4 21 -4 35 -1 30 8 33 50 5
66 -24 13 -24 13 -39 -2z"/>
<path d="M4740 8710 c0 -5 5 -10 10 -10 6 0 10 5 10 10 0 6 -4 10 -10 10 -5 0
-10 -4 -10 -10z"/>
<path d="M4810 8656 c0 -10 10 -14 30 -14 18 1 30 6 30 15 0 8 -12 13 -30 13
-19 0 -30 -5 -30 -14z"/>
<path d="M2714 8469 c-8 -14 11 -33 25 -25 16 10 13 36 -3 36 -8 0 -18 -5 -22
-11z"/>
<path d="M2620 8476 c0 -9 5 -16 10 -16 6 0 10 4 10 9 0 6 -4 13 -10 16 -5 3
-10 -1 -10 -9z"/>
<path d="M3100 8489 c0 -24 23 -21 28 4 2 10 -3 17 -12 17 -10 0 -16 -9 -16
-21z"/>
<path d="M3196 8481 c-4 -7 -5 -15 -2 -18 9 -9 19 4 14 18 -4 11 -6 11 -12 0z"/>
<path d="M4042 8473 c4 -20 18 -26 37 -14 18 12 5 31 -20 31 -14 0 -19 -6 -17
-17z"/>
<path d="M4207 8456 c-11 -27 -8 -36 8 -36 16 0 17 5 6 34 -7 18 -8 18 -14 2z"/>
<path d="M1960 8460 c0 -15 5 -20 18 -18 9 2 17 10 17 18 0 8 -8 16 -17 18
-13 2 -18 -3 -18 -18z"/>
<path d="M2208 8473 c7 -3 16 -2 19 1 4 3 -2 6 -13 5 -11 0 -14 -3 -6 -6z"/>
<path d="M2805 8470 c-8 -14 3 -30 21 -30 8 0 14 9 14 20 0 21 -24 28 -35 10z"/>
<path d="M5680 8460 c0 -15 5 -20 18 -18 9 2 17 10 17 18 0 8 -8 16 -17 18
-13 2 -18 -3 -18 -18z"/>
<path d="M5780 8460 c0 -11 7 -20 15 -20 8 0 15 9 15 20 0 11 -7 20 -15 20 -8
0 -15 -9 -15 -20z"/>
<path d="M6517 8474 c-14 -14 -7 -35 11 -32 9 2 17 10 17 17 0 16 -18 25 -28
15z"/>
<path d="M6610 8460 c0 -11 7 -20 15 -20 8 0 15 9 15 20 0 11 -7 20 -15 20 -8
0 -15 -9 -15 -20z"/>
<path d="M6705 8470 c-8 -14 3 -30 21 -30 8 0 14 9 14 20 0 21 -24 28 -35 10z"/>
<path d="M3710 8250 c0 -5 5 -10 10 -10 6 0 10 5 10 10 0 6 -4 10 -10 10 -5 0
-10 -4 -10 -10z"/>
<path d="M3790 8220 c0 -5 5 -10 10 -10 6 0 10 5 10 10 0 6 -4 10 -10 10 -5 0
-10 -4 -10 -10z"/>
<path d="M4860 8220 c0 -5 5 -10 10 -10 6 0 10 5 10 10 0 6 -4 10 -10 10 -5 0
-10 -4 -10 -10z"/>
<path d="M5000 8220 c0 -5 5 -10 10 -10 6 0 10 5 10 10 0 6 -4 10 -10 10 -5 0
-10 -4 -10 -10z"/>
<path d="M5090 8220 c0 -5 5 -10 10 -10 6 0 10 5 10 10 0 6 -4 10 -10 10 -5 0
-10 -4 -10 -10z"/>
<path d="M954 6948 c-12 -5 -27 -21 -33 -34 -8 -18 -11 -959 -11 -3469 l0
-3445 3440 0 3440 0 0 3445 c0 2503 -3 3451 -11 3468 -6 14 -22 30 -36 36 -33
15 -6758 14 -6789 -1z m1654 -633 c3 -56 5 -61 35 -76 36 -18 67 -64 67 -100
-1 -13 -3 -83 -6 -156 l-6 -132 -36 15 c-21 9 -41 18 -47 20 -7 3 -9 -102 -7
-306 l3 -309 -23 -6 c-13 -3 -214 -4 -448 -3 l-425 3 -3 441 -2 442 107 116
106 116 341 -2 341 -3 3 -60z m809 -195 c23 -63 51 -139 62 -167 l20 -53 -34
0 c-32 0 -37 4 -51 40 l-16 40 -64 0 -63 0 -12 -40 c-11 -36 -15 -40 -46 -40
-18 0 -33 2 -33 5 0 3 28 80 61 171 l61 165 37 -3 36 -3 42 -115z m1439 43
l36 -78 35 78 c34 74 37 77 69 77 l34 0 -55 -110 c-48 -97 -55 -117 -55 -170
l0 -60 -30 0 c-30 0 -30 1 -30 54 0 44 -10 74 -55 170 l-54 116 35 0 c33 0 36
-2 70 -77z m1223 63 c15 -8 32 -26 39 -41 38 -84 -22 -165 -123 -165 l-35 0 0
-60 0 -60 -30 0 -30 0 0 170 0 170 75 0 c46 0 87 -6 104 -14z m284 -138 c30
-84 58 -161 62 -170 6 -15 1 -18 -27 -18 -31 0 -37 4 -51 40 l-15 40 -65 0
-64 0 -12 -40 c-11 -37 -15 -40 -47 -40 -20 0 -34 4 -32 8 2 5 30 81 63 170
l60 162 36 0 36 0 56 -152z m297 127 c0 -23 -3 -25 -50 -25 l-50 0 0 -145 0
-145 -30 0 -30 0 0 145 0 145 -50 0 c-47 0 -50 2 -50 25 l0 25 130 0 130 0 0
-25z m-2952 -96 c3 -26 2 -27 -41 -22 -36 4 -49 1 -66 -16 -25 -25 -28 -77 -5
-110 15 -20 23 -23 65 -19 45 5 49 3 49 -17 0 -27 -17 -35 -75 -35 -79 0 -134
73 -115 153 10 46 16 55 54 78 22 14 45 19 81 17 46 -3 50 -5 53 -29z m230 0
c3 -26 2 -26 -45 -22 -59 6 -85 -16 -85 -72 0 -56 26 -78 84 -73 44 5 48 3 48
-17 0 -27 -17 -35 -71 -35 -129 0 -175 148 -72 230 21 17 38 20 82 18 52 -3
56 -5 59 -29z m223 2 c23 -23 29 -39 29 -70 l0 -41 -80 0 c-86 0 -99 -10 -60
-45 15 -14 31 -17 70 -13 47 5 50 4 50 -17 0 -28 -17 -35 -84 -35 -87 0 -124
49 -113 148 7 64 49 102 113 102 37 0 51 -5 75 -29z m227 -3 c4 -32 5 -31 -36
-17 -22 7 -36 7 -51 0 -27 -15 -17 -38 23 -51 74 -24 97 -80 51 -125 -19 -20
-34 -25 -74 -25 -65 0 -81 7 -81 37 0 18 4 23 18 19 51 -15 68 -16 86 -3 25
18 15 32 -39 56 -68 30 -83 74 -40 117 22 22 32 25 83 22 54 -3 57 -4 60 -30z
m210 0 c4 -32 5 -31 -36 -17 -22 7 -36 7 -51 -1 -30 -16 -26 -28 17 -47 83
-38 103 -83 57 -129 -22 -22 -32 -25 -88 -22 -60 3 -62 4 -65 32 -3 23 -1 28
13 22 40 -15 65 -17 84 -6 30 16 26 28 -16 47 -84 38 -104 83 -58 129 22 22
32 25 83 22 54 -3 57 -4 60 -30z m609 12 c65 -39 66 -150 2 -204 -36 -31 -102
-35 -150 -10 -32 16 -59 66 -59 110 0 39 29 93 59 109 38 21 110 19 148 -5z
m153 -54 c0 -99 11 -126 49 -126 41 0 51 23 51 119 l0 81 30 0 30 0 0 -125 0
-125 -30 0 c-16 0 -30 5 -30 10 0 7 -6 7 -19 0 -22 -11 -71 -13 -96 -4 -31 12
-45 59 -45 154 l0 90 30 0 30 0 0 -74z m290 58 c0 -14 1 -14 16 0 8 9 26 16
40 16 20 0 24 -5 24 -31 0 -26 -3 -29 -19 -24 -13 4 -27 -1 -40 -14 -18 -18
-21 -34 -21 -101 l0 -80 -35 0 -35 0 0 125 0 125 35 0 c25 0 35 -4 35 -16z
m-1030 -461 l0 -107 38 52 c33 46 41 51 75 52 l38 0 -46 -59 c-52 -66 -53 -61
13 -138 l44 -53 -40 0 c-37 0 -43 4 -79 52 l-38 53 -3 -53 -3 -52 -35 0 -34 0
0 180 0 180 35 0 35 0 0 -107z m1480 -2 c0 -123 -7 -151 -36 -151 -24 0 -24 0
-24 120 l0 120 30 0 30 0 0 -89z m-2315 -87 c20 -97 26 -95 52 14 16 71 17 72
48 72 32 0 32 0 51 -85 10 -46 21 -79 25 -72 3 6 14 45 24 85 16 69 18 72 46
72 16 0 29 -1 29 -3 0 -3 -12 -44 -51 -179 -19 -66 -21 -68 -53 -68 l-33 0
-18 80 c-10 44 -22 77 -25 73 -4 -4 -15 -41 -26 -80 -18 -72 -18 -73 -51 -73
-31 0 -33 2 -52 68 -11 37 -25 86 -31 110 -6 24 -14 50 -17 58 -4 10 3 14 29
14 l35 0 18 -86z m493 70 c49 -34 65 -104 38 -169 -18 -42 -61 -65 -120 -65
-115 0 -165 149 -75 224 24 21 41 26 83 26 30 0 61 -6 74 -16z m162 -1 c0 -15
1 -15 18 0 10 10 28 17 40 17 18 0 22 -6 22 -31 0 -26 -3 -29 -19 -24 -13 4
-27 -1 -40 -14 -18 -18 -21 -34 -21 -101 l0 -80 -30 0 -30 0 0 125 0 125 30 0
c21 0 30 -5 30 -17z m518 -15 c4 -32 5 -31 -36 -17 -22 7 -36 7 -51 -1 -30
-16 -26 -28 17 -47 83 -38 103 -83 57 -129 -22 -22 -32 -25 -88 -22 -60 3 -62
4 -65 32 -3 23 -1 28 13 22 40 -15 65 -17 84 -6 30 16 26 28 -16 47 -84 38
-104 83 -58 129 22 22 32 25 83 22 54 -3 57 -4 60 -30z m112 16 c0 -15 2 -15
25 0 13 9 42 16 64 16 58 0 91 -42 91 -116 0 -61 -11 -90 -44 -116 -27 -23
-94 -23 -118 -1 -17 15 -18 13 -18 -55 l0 -72 -30 0 -30 0 0 180 0 180 30 0
c21 0 30 -5 30 -16z m395 -9 c23 -22 25 -31 25 -125 l0 -100 -30 0 c-21 0 -30
5 -30 17 0 15 -1 15 -18 0 -26 -24 -87 -22 -112 3 -51 51 -8 124 79 136 54 7
60 13 35 38 -19 20 -26 20 -71 1 -45 -19 -43 -20 -43 10 0 31 26 43 93 44 38
1 53 -4 72 -24z m263 -6 c3 -26 2 -26 -45 -22 -59 6 -85 -16 -85 -72 0 -56 26
-78 84 -73 44 5 48 3 48 -17 0 -27 -17 -35 -71 -35 -129 0 -175 148 -72 230
21 17 38 20 82 18 52 -3 56 -5 59 -29z m223 2 c23 -23 29 -39 29 -70 l0 -41
-80 0 c-86 0 -99 -10 -60 -45 15 -14 31 -17 70 -13 47 5 50 4 50 -17 0 -28
-17 -35 -84 -35 -87 0 -124 49 -113 148 7 64 49 102 113 102 37 0 51 -5 75
-29z m149 -176 c17 -20 -3 -45 -36 -45 -28 0 -37 13 -29 40 8 24 47 27 65 5z
m970 -435 c0 -7 -913 -10 -2720 -10 -1807 0 -2720 3 -2720 10 0 7 913 10 2720
10 1807 0 2720 -3 2720 -10z m-5320 -450 c0 -33 -4 -60 -10 -60 -6 0 -10 27
-10 60 0 33 4 60 10 60 6 0 10 -27 10 -60z m400 0 c0 -33 -4 -60 -10 -60 -6 0
-10 27 -10 60 0 33 4 60 10 60 6 0 10 -27 10 -60z m230 50 c0 -5 -7 -10 -15
-10 -8 0 -15 5 -15 10 0 6 7 10 15 10 8 0 15 -4 15 -10z m-669 -16 c16 -20 1
-48 -30 -52 -13 -2 -21 -11 -21 -23 0 -10 -4 -19 -10 -19 -5 0 -10 25 -10 55
0 54 1 55 29 55 16 0 34 -7 42 -16z m845 -9 c9 -8 11 -15 5 -15 -15 0 -14 -57
2 -64 6 -3 3 -5 -8 -3 -14 2 -22 12 -25 37 -6 34 -3 60 7 60 2 0 11 -7 19 -15z
m1060 0 c9 -8 11 -15 5 -15 -15 0 -14 -57 2 -63 6 -3 2 -6 -10 -6 -20 -1 -23
4 -23 34 0 19 -4 35 -10 35 -5 0 -10 -16 -10 -35 0 -44 -18 -46 -22 -3 -4 46
-28 49 -28 4 0 -25 -4 -36 -15 -36 -11 0 -15 11 -15 40 l0 41 47 -3 c29 -1 48
3 51 10 5 16 10 15 28 -3z m-1778 -27 c3 -14 -3 -18 -27 -18 -24 0 -29 -4 -24
-16 3 -9 13 -14 24 -11 11 3 19 1 19 -4 0 -13 -44 -11 -58 3 -16 16 -15 41 0
56 18 18 62 11 66 -10z m80 -20 c3 -38 3 -38 -33 -38 -32 0 -36 3 -33 22 2 14
12 24 28 28 15 4 20 9 13 13 -6 4 -19 4 -29 0 -12 -4 -15 -3 -10 6 4 7 20 11
34 9 23 -3 27 -8 30 -40z m72 31 c0 -6 -9 -8 -20 -4 -27 8 -26 -9 2 -27 12 -8
18 -19 14 -26 -8 -14 -56 -16 -56 -3 0 5 9 7 20 4 11 -3 20 -1 20 5 0 6 -9 14
-20 17 -20 6 -26 25 -13 38 10 11 53 8 53 -4z m78 -11 c3 -14 -3 -18 -23 -18
-17 0 -25 -5 -22 -12 2 -7 15 -12 28 -10 17 2 21 0 12 -9 -6 -6 -21 -9 -34 -7
-25 3 -36 34 -25 64 8 21 60 14 64 -8z m176 0 c14 -23 -3 -52 -33 -56 -42 -6
-67 38 -39 66 17 17 58 11 72 -10z m96 -26 c0 -26 -5 -53 -12 -60 -15 -15 -68
-16 -68 -1 0 6 9 8 21 4 14 -5 25 -2 30 6 6 10 1 15 -19 19 -19 4 -28 12 -30
28 -6 39 5 52 43 52 l35 0 0 -48z m40 8 c0 -29 -4 -40 -15 -40 -11 0 -15 11
-15 40 0 29 4 40 15 40 11 0 15 -11 15 -40z m88 -2 c2 -21 -1 -38 -7 -38 -5 0
-11 14 -13 32 -4 46 -28 49 -28 4 0 -25 -4 -36 -15 -36 -11 0 -15 11 -15 41
l0 40 38 -3 c35 -3 37 -5 40 -40z m190 5 c3 -28 -1 -33 -22 -39 -39 -9 -56 2
-56 35 0 32 12 41 50 38 20 -2 26 -8 28 -34z m80 10 l10 -28 11 28 c6 15 15
27 21 27 14 0 13 -2 -14 -65 -16 -34 -31 -55 -41 -55 -15 0 -15 1 -1 16 19 19
19 14 1 57 -18 42 -18 47 -6 47 5 0 14 -12 19 -27z m136 5 c14 -23 -3 -52 -33
-56 -42 -6 -67 38 -39 66 17 17 58 11 72 -10z m38 -10 c4 -46 28 -49 28 -4 0
25 4 36 15 36 11 0 15 -11 15 -41 l0 -40 -37 3 c-36 3 -38 5 -41 41 -2 20 1
37 7 37 5 0 11 -14 13 -32z m104 16 c-9 -8 -16 -26 -16 -40 0 -13 -4 -24 -10
-24 -5 0 -10 18 -10 40 0 36 2 40 26 40 23 0 24 -1 10 -16z m132 -26 c3 -38 3
-38 -33 -38 -32 0 -36 3 -33 22 2 14 12 24 28 28 15 4 20 9 13 13 -6 4 -19 4
-29 0 -12 -4 -15 -3 -10 6 4 7 20 11 34 9 23 -3 27 -8 30 -40z m82 32 c0 -5
-10 -9 -22 -7 -24 2 -38 -27 -21 -44 14 -14 43 0 43 20 0 9 5 22 12 29 14 14
58 16 58 3 0 -5 -8 -7 -19 -4 -11 3 -21 -2 -24 -11 -10 -25 3 -48 24 -43 11 3
19 1 19 -4 0 -13 -47 -11 -55 1 -5 8 -11 7 -20 0 -8 -6 -24 -10 -37 -8 -17 2
-24 11 -26 32 -2 16 2 32 10 37 18 12 58 11 58 -1z m154 -12 c15 -24 -3 -52
-37 -56 -33 -4 -53 28 -37 59 14 25 58 23 74 -3z m36 -7 c0 -17 5 -33 11 -37
14 -8 29 14 29 44 0 12 5 22 10 22 6 0 10 -18 10 -40 0 -39 -1 -40 -34 -40
-22 0 -36 6 -40 16 -9 25 -7 64 4 64 6 0 10 -13 10 -29z m3638 -283 c17 -17
17 -329 0 -346 -17 -17 -5399 -17 -5416 0 -8 8 -12 61 -12 173 0 112 4 165 12
173 17 17 5399 17 5416 0z m0 -530 c17 -17 17 -329 0 -346 -17 -17 -5399 -17
-5416 0 -8 8 -12 61 -12 173 0 112 4 165 12 173 17 17 5399 17 5416 0z m-4922
-565 c-326 -2 -473 -7 -483 -14 -19 -16 -19 -322 0 -338 10 -7 154 -12 473
-14 l459 -2 -462 -3 c-408 -2 -463 0 -477 14 -13 13 -16 43 -16 174 0 131 3
161 16 174 14 14 70 16 487 14 l472 -3 -469 -2z m4918 -9 c24 -23 24 -325 0
-348 -14 -14 -68 -16 -472 -14 l-457 3 454 2 c315 2 458 7 468 14 19 16 19
322 0 338 -10 7 -156 12 -478 14 l-464 2 467 3 c413 2 468 0 482 -14z m-2874
-179 c0 -24 5 -35 14 -35 8 0 18 -4 21 -10 4 -6 -7 -10 -24 -10 -30 0 -31 1
-31 45 0 25 5 45 10 45 6 0 10 -16 10 -35z m111 19 c11 -14 13 -14 21 0 10 17
68 22 68 7 0 -5 -12 -11 -27 -13 -34 -4 -40 -40 -8 -47 17 -3 18 -1 6 13 -12
14 -11 16 8 16 16 0 21 -6 21 -25 0 -21 -5 -25 -28 -25 -15 0 -33 5 -40 12 -8
8 -15 8 -26 -1 -38 -32 -89 8 -68 53 13 30 52 35 73 10z m159 -29 c0 -33 -4
-45 -15 -45 -11 0 -15 12 -15 45 0 33 4 45 15 45 11 0 15 -12 15 -45z m52 18
l17 -28 1 28 c0 15 5 27 10 27 6 0 10 -20 10 -45 0 -52 -19 -61 -40 -17 l-14
27 -4 -27 c-6 -45 -22 -32 -22 17 0 52 17 59 42 18z m398 -434 l0 -60 -37 3
c-36 3 -38 5 -38 38 0 31 3 35 28 38 19 2 27 9 27 23 0 10 5 19 10 19 6 0 10
-27 10 -61z m-1117 44 c-32 -6 -30 -39 1 -45 16 -3 27 0 30 9 8 19 56 13 70
-9 15 -25 -3 -52 -37 -56 -21 -3 -30 3 -39 22 -15 34 -48 35 -48 1 0 -16 -6
-25 -15 -25 -12 0 -15 13 -15 55 l0 55 38 -1 c23 -1 28 -3 15 -6z m1183 -6 c2
-7 -2 -26 -10 -42 -14 -26 -16 -27 -22 -10 -5 11 -3 20 4 23 7 2 12 10 12 19
0 10 -6 12 -21 8 -15 -5 -19 -4 -15 4 10 15 46 14 52 -2z m-790 -12 c9 -8 11
-15 5 -15 -15 0 -14 -57 2 -64 6 -3 3 -5 -8 -3 -14 2 -22 12 -25 37 -6 34 -3
60 7 60 2 0 11 -7 19 -15z m-233 -12 c-7 -2 -13 -20 -13 -39 0 -24 -5 -34 -15
-34 -11 0 -15 11 -15 40 0 37 2 40 28 39 15 0 21 -3 15 -6z m97 -34 c0 -56
-14 -79 -50 -79 -17 0 -30 4 -30 10 0 5 10 9 21 7 12 -1 24 4 26 11 3 7 -4 12
-15 12 -31 0 -47 26 -34 55 9 20 19 25 47 25 34 0 35 -1 35 -41z m85 1 c0 -29
-4 -36 -23 -38 -43 -6 -69 37 -40 66 7 7 24 12 38 10 21 -3 25 -8 25 -38z
m195 20 c14 -26 -3 -60 -30 -60 -13 0 -20 -7 -20 -20 0 -11 -7 -20 -15 -20
-12 0 -15 13 -15 60 l0 60 35 0 c24 0 37 -6 45 -20z m78 -23 c3 -38 3 -38 -30
-35 -39 4 -45 28 -10 43 28 12 29 29 1 20 -15 -5 -19 -4 -14 5 4 6 17 10 28 8
18 -2 23 -11 25 -41z m72 33 c0 -5 -7 -7 -15 -4 -20 8 -19 -13 2 -24 23 -14 9
-42 -22 -42 -14 0 -25 5 -25 11 0 6 9 8 20 4 26 -8 26 11 0 25 -25 14 -15 40
16 40 13 0 24 -4 24 -10z m70 0 c0 -5 -7 -7 -15 -4 -20 8 -19 -13 2 -24 23
-14 9 -42 -22 -42 -14 0 -25 5 -25 11 0 6 9 8 20 4 26 -8 26 11 0 25 -25 14
-15 40 16 40 13 0 24 -4 24 -10z m34 -12 l7 -23 9 23 c5 12 13 22 19 22 5 0
12 -10 16 -22 l8 -23 4 23 c5 24 23 31 23 8 0 -24 -19 -66 -29 -66 -5 0 -13
10 -17 22 l-7 23 -8 -23 c-5 -12 -13 -22 -18 -22 -8 0 -31 52 -31 71 0 18 18
8 24 -13z m174 -15 c3 -28 -1 -33 -22 -39 -39 -9 -56 2 -56 35 0 32 12 41 50
38 20 -2 26 -8 28 -34z m55 30 c-7 -2 -13 -20 -13 -39 0 -24 -5 -34 -15 -34
-11 0 -15 11 -15 40 0 37 2 40 28 39 15 0 21 -3 15 -6z m147 -63 c0 -5 -4 -10
-10 -10 -5 0 -10 5 -10 10 0 6 5 10 10 10 6 0 10 -4 10 -10z m2108 -602 c8 -8
12 -60 12 -168 0 -108 -4 -160 -12 -168 -17 -17 -999 -17 -1016 0 -8 8 -12 60
-12 168 0 108 4 160 12 168 17 17 999 17 1016 0z m-4968 -128 c0 -14 7 -20 24
-20 13 0 27 -7 30 -16 9 -25 7 -64 -4 -64 -5 0 -10 13 -10 29 0 17 -5 33 -11
37 -14 8 -29 -14 -29 -43 0 -13 -4 -23 -10 -23 -6 0 -10 27 -10 60 0 33 4 60
10 60 6 0 10 -9 10 -20z m-366 -6 c36 -35 5 -94 -50 -94 l-34 0 0 55 0 55 34
0 c19 0 42 -7 50 -16z m236 1 c0 -18 17 -20 22 -3 3 9 9 8 22 -5 10 -9 13 -17
7 -17 -15 0 -14 -57 2 -63 6 -3 2 -6 -10 -6 -20 -1 -23 4 -23 33 0 26 -5 36
-20 41 -20 6 -28 35 -10 35 6 0 10 -7 10 -15z m1316 0 c3 -8 -1 -22 -10 -31
-9 -8 -14 -20 -11 -25 4 -5 -1 -6 -10 -3 -14 6 -14 9 0 30 20 31 19 37 -5 31
-11 -3 -20 -1 -20 4 0 15 50 10 56 -6z m-80 -10 c9 -8 11 -15 5 -15 -15 0 -14
-57 2 -64 6 -3 3 -5 -8 -3 -14 2 -22 12 -25 37 -6 34 -3 60 7 60 2 0 11 -7 19
-15z m-1368 -42 c3 -28 -1 -33 -22 -39 -39 -9 -56 2 -56 35 0 32 12 41 50 38
20 -2 26 -8 28 -34z m90 -5 c2 -21 -1 -38 -7 -38 -5 0 -11 14 -13 32 -4 46
-28 49 -28 4 0 -25 -4 -36 -15 -36 -11 0 -15 11 -15 41 l0 40 38 -3 c35 -3 37
-5 40 -40z m310 0 c3 -38 3 -38 -33 -38 -32 0 -36 3 -33 22 2 14 12 24 28 28
15 4 20 9 13 13 -6 4 -19 4 -29 0 -12 -4 -15 -3 -10 6 4 7 20 11 34 9 23 -3
27 -8 30 -40z m33 15 l11 -28 10 28 c8 23 28 38 28 22 0 -17 -31 -75 -39 -75
-6 0 -11 2 -11 4 0 2 -7 20 -15 40 -9 22 -11 36 -5 36 6 0 15 -12 21 -27z
m127 5 c3 -14 -3 -18 -27 -18 -24 0 -29 -4 -24 -16 4 -11 13 -14 30 -9 16 4
22 2 18 -5 -11 -18 -54 -11 -65 10 -16 31 4 62 38 58 16 -2 28 -10 30 -20z
m120 -21 c3 -38 3 -38 -30 -35 -42 4 -51 34 -14 44 14 3 26 11 26 16 0 6 -9 8
-20 5 -11 -3 -20 -1 -20 5 0 5 12 8 28 6 23 -3 27 -8 30 -41z m90 1 c2 -22 -1
-38 -7 -38 -6 0 -11 16 -11 36 0 45 -24 42 -28 -4 -5 -46 -22 -39 -22 9 0 39
1 40 33 37 29 -3 32 -6 35 -40z m130 0 c3 -38 3 -38 -33 -38 -32 0 -36 3 -33
22 2 14 12 24 28 28 15 4 20 9 13 13 -6 4 -19 4 -29 0 -12 -4 -15 -3 -10 6 4
7 20 11 34 9 23 -3 27 -8 30 -40z m82 32 c0 -5 -10 -9 -22 -7 -24 2 -38 -27
-21 -44 14 -14 43 0 43 20 0 9 5 22 12 29 14 14 58 16 58 3 0 -5 -8 -7 -19 -4
-11 3 -21 -2 -24 -11 -10 -25 3 -48 24 -43 11 3 19 1 19 -4 0 -12 -47 -12 -55
1 -4 6 -13 5 -25 -3 -37 -22 -77 25 -50 58 14 17 60 20 60 5z m158 -27 c3 -28
-1 -33 -22 -39 -39 -9 -56 2 -56 35 0 32 12 41 50 38 20 -2 26 -8 28 -34z m32
8 c0 -17 5 -33 11 -37 14 -8 29 14 29 44 0 12 5 22 10 22 6 0 10 -18 10 -40 0
-39 -1 -40 -34 -40 -22 0 -36 6 -40 16 -9 25 -7 64 4 64 6 0 10 -13 10 -29z
m148 -13 c2 -22 -1 -38 -7 -38 -6 0 -11 16 -11 36 0 45 -24 42 -28 -4 -5 -46
-22 -39 -22 9 0 39 1 40 33 37 29 -3 32 -6 35 -40z m112 -28 c0 -5 -4 -10 -10
-10 -5 0 -10 5 -10 10 0 6 5 10 10 10 6 0 10 -4 10 -10z m-900 -1415 c0 -8 -7
-15 -15 -15 -8 0 -15 7 -15 15 0 8 7 15 15 15 8 0 15 -7 15 -15z m1035 4 c10
-15 -1 -23 -20 -15 -9 3 -13 10 -10 16 8 13 22 13 30 -1z m465 -14 c0 -21 5
-25 29 -25 32 0 41 -14 41 -66 0 -49 -28 -46 -32 4 -2 25 -8 37 -18 37 -10 0
-16 -12 -18 -37 -2 -25 -8 -38 -18 -38 -11 0 -14 16 -14 75 0 60 3 75 15 75 9
0 15 -9 15 -25z m-2184 -35 l11 -45 13 48 c16 59 44 66 54 12 10 -49 23 -52
31 -5 4 25 12 40 21 40 18 0 18 -11 -2 -82 -12 -43 -21 -58 -35 -58 -12 0 -20
11 -24 33 -11 51 -18 54 -30 11 -15 -55 -43 -54 -60 3 -27 90 -27 95 -8 91 11
-2 21 -19 29 -48z m958 44 c19 -7 21 -35 4 -52 -8 -8 -8 -12 -1 -12 17 0 24
-29 13 -51 -8 -14 -21 -19 -55 -19 l-45 0 0 70 0 70 34 0 c19 0 41 -3 50 -6z
m476 -4 c0 -5 -9 -10 -20 -10 -18 0 -20 -7 -20 -60 0 -47 -3 -60 -15 -60 -12
0 -15 13 -15 60 0 53 -2 60 -20 60 -11 0 -20 5 -20 10 0 6 25 10 55 10 30 0
55 -4 55 -10z m1170 -35 c0 -33 -4 -45 -15 -45 -11 0 -15 12 -15 45 0 33 4 45
15 45 11 0 15 -12 15 -45z m-1460 21 c0 -8 6 -17 13 -20 10 -5 10 -7 0 -12
-15 -7 -18 -64 -3 -64 6 0 10 -4 10 -10 0 -5 -11 -10 -25 -10 -22 0 -25 4 -25
39 0 22 -6 42 -12 45 -10 5 -10 7 0 12 6 3 12 12 12 20 0 8 7 14 15 14 8 0 15
-6 15 -14z m510 -1 c0 -8 7 -15 15 -15 8 0 15 -4 15 -10 0 -5 -7 -10 -15 -10
-10 0 -15 -10 -15 -30 0 -20 5 -30 15 -30 8 0 15 -5 15 -11 0 -6 -12 -9 -27
-7 -24 3 -28 8 -31 39 -3 32 -6 36 -33 37 -33 1 -39 -14 -8 -23 14 -5 19 -14
17 -28 -2 -17 -11 -23 -40 -25 -29 -2 -38 0 -38 13 0 11 6 14 25 9 15 -4 25
-2 25 5 0 6 -6 11 -14 11 -7 0 -19 7 -26 15 -19 23 5 45 51 45 28 0 39 4 39
15 0 8 7 15 15 15 8 0 15 -7 15 -15z m-1422 -27 c7 -7 12 -20 12 -30 0 -13 -8
-18 -30 -18 -16 0 -30 -5 -30 -11 0 -7 11 -9 31 -5 22 4 29 2 26 -7 -2 -7 -20
-12 -43 -12 -33 0 -40 4 -48 27 -8 22 -6 32 9 48 20 22 55 26 73 8z m160 0 c7
-7 12 -29 12 -49 0 -36 0 -37 -42 -37 -24 -1 -46 4 -50 11 -11 19 11 47 38 47
15 0 23 4 18 11 -3 6 -17 8 -30 5 -23 -6 -32 3 -17 17 11 11 58 8 71 -5z m92
3 c0 -5 -7 -11 -15 -15 -9 -3 -15 -19 -15 -41 0 -28 -4 -35 -20 -35 -17 0 -20
7 -20 50 l0 50 35 0 c19 0 35 -4 35 -9z m88 -3 c7 -7 12 -20 12 -30 0 -14 -8
-18 -36 -18 -23 0 -33 -4 -28 -11 3 -6 17 -9 30 -6 16 3 24 0 24 -9 0 -18 -61
-19 -78 -2 -15 15 -15 43 -2 69 12 22 59 26 78 7z m112 -38 c0 -38 -4 -50 -15
-50 -11 0 -15 12 -15 50 0 38 4 50 15 50 11 0 15 -12 15 -50z m114 34 c3 -9 6
-31 6 -50 0 -49 -28 -46 -32 4 -2 25 -8 37 -18 37 -10 0 -16 -12 -18 -37 -2
-25 -8 -38 -18 -38 -10 0 -14 13 -14 50 l0 50 44 0 c31 0 46 -5 50 -16z m286
-3 c17 -33 12 -41 -26 -41 -23 0 -33 -4 -28 -11 3 -6 17 -8 30 -5 17 5 24 2
24 -9 0 -10 -10 -15 -33 -15 -40 0 -57 15 -57 50 0 14 5 31 12 38 19 19 66 15
78 -7z m168 7 c7 -7 12 -29 12 -49 0 -36 0 -37 -42 -37 -24 -1 -46 4 -50 11
-11 19 11 47 38 47 15 0 23 4 18 11 -3 6 -17 8 -30 5 -23 -6 -32 3 -17 17 11
11 58 8 71 -5z m260 -20 c3 -25 0 -28 -28 -28 -20 0 -29 -4 -24 -11 3 -6 17
-8 31 -4 18 4 24 2 21 -7 -3 -7 -19 -14 -36 -16 -24 -2 -34 2 -48 22 -15 24
-15 28 0 52 14 20 24 25 49 22 27 -2 33 -8 35 -30z m212 -18 c0 -38 -4 -50
-15 -50 -11 0 -15 12 -15 50 0 38 4 50 15 50 11 0 15 -12 15 -50z m108 38 c18
-18 16 -88 -3 -88 -10 0 -15 10 -15 28 0 15 -4 33 -9 41 -14 22 -31 3 -31 -35
0 -24 -5 -34 -15 -34 -11 0 -15 12 -15 50 l0 50 38 0 c21 0 43 -5 50 -12z
m122 -51 c0 -36 -5 -68 -12 -75 -17 -17 -78 -16 -78 2 0 10 9 14 26 13 15 -1
29 4 31 11 3 7 -4 12 -19 12 -43 0 -61 38 -38 81 8 14 21 19 50 19 l40 0 0
-63z m181 40 c17 -37 -4 -77 -41 -77 -25 0 -30 -4 -30 -25 0 -16 -6 -25 -15
-25 -12 0 -15 15 -15 75 l0 75 45 0 c38 0 47 -4 56 -23z m217 -29 l3 -48 -41
0 c-27 0 -43 5 -46 15 -8 20 13 45 37 45 11 0 19 5 19 11 0 7 -10 9 -25 5 -14
-4 -25 -3 -25 2 0 16 14 23 45 20 28 -3 30 -6 33 -50z m92 38 c0 -9 -7 -12
-20 -9 -11 3 -20 1 -20 -5 0 -5 9 -12 21 -15 15 -4 20 -12 17 -29 -2 -19 -9
-23 -35 -23 -18 0 -33 5 -33 10 1 6 10 9 20 7 26 -4 26 14 0 21 -19 5 -27 36
-13 50 13 13 63 7 63 -7z m98 2 c7 -7 12 -20 12 -30 0 -13 -8 -18 -30 -18 -16
0 -30 -5 -30 -11 0 -7 11 -9 31 -5 22 4 29 2 26 -7 -2 -7 -20 -12 -43 -12 -33
0 -40 4 -48 27 -8 22 -6 32 9 48 20 22 55 26 73 8z m62 -73 c0 -8 -7 -15 -15
-15 -8 0 -15 7 -15 15 0 8 7 15 15 15 8 0 15 -7 15 -15z"/>
<path d="M1960 6230 l0 -110 -100 0 -100 0 0 -405 0 -405 400 0 400 0 0 290 0
290 -37 -16 c-21 -9 -43 -18 -49 -20 -8 -4 -13 44 -17 153 -6 179 1 206 68
237 31 15 35 21 35 56 l0 40 -300 0 -300 0 0 -110z m275 -205 c30 -83 41 -103
43 -82 3 26 5 27 68 27 l64 0 -2 -232 -3 -233 -48 -3 c-27 -2 -54 1 -60 7 -7
5 -23 41 -37 80 l-24 71 -152 0 -152 0 -15 -42 c-8 -24 -18 -51 -22 -60 -6
-15 -2 -18 19 -18 20 0 29 8 41 36 8 21 20 34 27 31 15 -5 13 -39 -5 -76 -11
-23 -19 -26 -66 -29 -30 -2 -58 1 -62 5 -5 5 5 48 23 96 l31 87 181 0 181 0
26 -72 c22 -63 30 -73 52 -76 32 -4 39 -28 -84 306 l-92 252 -37 0 -37 0 -53
-147 c-29 -82 -55 -154 -58 -160 -3 -10 22 -13 103 -13 82 0 106 3 102 13 -2
6 -14 40 -27 75 -12 34 -26 62 -31 62 -4 0 -15 -23 -24 -51 -12 -37 -21 -49
-33 -47 -21 5 -19 19 20 119 16 44 35 78 40 77 14 -5 110 -267 102 -279 -7
-12 -291 -12 -299 1 -5 7 115 355 132 383 3 4 32 7 66 5 l62 -3 40 -110z m173
53 l3 -58 -66 0 -65 0 0 53 c0 30 3 57 7 61 4 4 32 6 63 4 l55 -3 3 -57z m102
-638 l0 -90 -75 0 c-68 0 -75 2 -75 20 0 17 7 20 50 20 l50 0 0 63 c0 69 3 77
32 77 16 0 18 -9 18 -90z"/>
<path d="M2321 5863 c0 -58 6 -94 24 -138 l24 -60 0 138 1 137 -25 0 c-25 0
-25 -1 -24 -77z"/>
<path d="M2320 6075 c0 -20 5 -25 25 -25 20 0 25 5 25 25 0 20 -5 25 -25 25
-20 0 -25 -5 -25 -25z"/>
<path d="M1852 6236 c-29 -30 -52 -57 -52 -60 0 -3 25 -6 55 -6 l55 0 0 60 c0
33 -1 60 -3 60 -2 0 -27 -24 -55 -54z"/>
<path d="M2524 6186 c-58 -49 -20 -146 57 -146 36 0 89 47 89 80 0 78 -87 117
-146 66z"/>
<path d="M2510 5964 l0 -44 39 16 c36 14 42 14 70 -1 l31 -16 0 45 0 44 -35
-11 c-25 -7 -45 -7 -70 0 l-35 11 0 -44z"/>
<path d="M3316 6113 c-10 -32 -21 -64 -23 -70 -4 -9 8 -13 42 -13 52 0 50 -9
16 93 l-17 49 -18 -59z"/>
<path d="M5960 6129 l0 -62 36 6 c48 8 64 23 64 63 0 38 -21 54 -69 54 l-31 0
0 -61z"/>
<path d="M6243 6095 l-21 -65 44 0 c24 0 44 4 44 8 0 13 -32 106 -39 114 -4 5
-16 -21 -28 -57z"/>
<path d="M4050 6090 c-31 -31 -24 -40 30 -40 43 0 50 3 50 20 0 18 -26 40 -49
40 -6 0 -20 -9 -31 -20z"/>
<path d="M5086 6081 c-10 -11 -18 -36 -18 -56 0 -44 26 -75 63 -75 40 0 59 24
59 75 0 26 -6 50 -16 59 -21 22 -67 20 -88 -3z"/>
<path d="M4156 5598 c-37 -53 -9 -128 48 -128 43 0 59 20 59 75 0 24 -5 51
-13 59 -19 24 -76 20 -94 -6z"/>
<path d="M5091 5606 c-21 -26 -25 -83 -7 -111 21 -33 68 -34 90 -3 22 31 20
91 -2 111 -23 21 -65 22 -81 3z"/>
<path d="M5370 5531 c-18 -5 -25 -14 -25 -31 0 -20 6 -26 30 -28 31 -4 55 18
55 50 0 19 -16 21 -60 9z"/>
<path d="M5840 5610 c-31 -31 -24 -40 30 -40 43 0 50 3 50 20 0 18 -26 40 -49
40 -6 0 -20 -9 -31 -20z"/>
<path d="M1660 4595 c0 -26 24 -35 32 -12 7 18 -2 37 -18 37 -8 0 -14 -10 -14
-25z"/>
<path d="M1785 4580 c-3 -5 3 -10 15 -10 12 0 18 5 15 10 -3 6 -10 10 -15 10
-5 0 -12 -4 -15 -10z"/>
<path d="M1875 4549 c-4 -6 -5 -13 -2 -16 7 -7 27 6 27 18 0 12 -17 12 -25 -2z"/>
<path d="M2025 4580 c-3 -5 1 -10 9 -10 9 0 16 5 16 10 0 6 -4 10 -9 10 -6 0
-13 -4 -16 -10z"/>
<path d="M2186 4575 c-7 -20 3 -45 19 -45 7 0 15 7 19 15 7 20 -3 45 -19 45
-7 0 -15 -7 -19 -15z"/>
<path d="M2284 4576 c-8 -22 3 -49 19 -43 6 2 12 14 12 27 0 27 -22 39 -31 16z"/>
<path d="M2604 4576 c-8 -22 3 -49 19 -43 6 2 12 14 12 27 0 27 -22 39 -31 16z"/>
<path d="M2816 4575 c-7 -20 3 -45 19 -45 16 0 26 25 19 45 -4 8 -12 15 -19
15 -7 0 -15 -7 -19 -15z"/>
<path d="M3105 4549 c-4 -6 -5 -13 -2 -16 7 -7 27 6 27 18 0 12 -17 12 -25 -2z"/>
<path d="M3330 4575 c-11 -13 -11 -19 3 -33 20 -19 41 -5 35 24 -4 24 -22 28
-38 9z"/>
<path d="M1874 4108 c-4 -6 2 -19 14 -29 28 -22 28 -29 0 -30 -19 -1 -20 -2
-4 -6 10 -3 23 0 30 7 8 9 6 16 -11 27 -13 9 -23 19 -23 24 0 4 10 10 23 12
22 4 22 4 0 6 -12 0 -25 -4 -29 -11z"/>
<path d="M1973 4114 c27 -8 20 -27 -9 -21 -22 4 -25 1 -22 -22 2 -19 9 -27 28
-28 25 -3 25 -3 3 7 -31 13 -29 30 3 30 19 0 25 5 22 17 -2 10 -12 19 -23 20
-16 1 -16 1 -2 -3z"/>
<path d="M2033 4080 c0 -25 2 -35 4 -22 2 12 2 32 0 45 -2 12 -4 2 -4 -23z"/>
<path d="M2080 4081 c0 -23 2 -41 4 -41 8 0 12 71 4 76 -4 3 -8 -13 -8 -35z"/>
<path d="M2123 4109 c10 -6 17 -23 18 -42 1 -18 3 -24 6 -14 8 30 -6 67 -25
67 -16 -1 -16 -1 1 -11z"/>
<path d="M2200 4108 c24 -10 24 -10 5 -18 -18 -8 -18 -9 -2 -9 22 -1 17 -25
-5 -29 -9 -2 -19 5 -22 15 -4 15 -5 15 -3 -2 2 -14 10 -20 30 -21 22 -1 27 3
27 22 0 37 -11 54 -34 53 -19 0 -19 -1 4 -11z"/>
<path d="M2288 4113 c6 -3 13 -21 13 -41 l2 -37 6 35 c9 50 38 53 44 6 l4 -36
-1 37 c-1 37 -2 38 -41 39 -22 1 -34 -1 -27 -3z"/>
<path d="M2423 4114 c27 -8 20 -27 -9 -21 -22 4 -25 1 -22 -22 2 -19 9 -27 28
-28 25 -3 25 -3 3 7 -31 13 -29 30 3 30 19 0 25 5 22 17 -2 10 -12 19 -23 20
-16 1 -16 1 -2 -3z"/>
<path d="M1773 4060 c2 -8 14 -16 28 -17 19 -1 20 -1 4 4 -11 3 -24 10 -28 17
-6 7 -7 6 -4 -4z"/>
<path d="M2390 3606 c0 -18 -4 -23 -18 -19 -24 6 -44 -19 -40 -49 2 -18 10
-23 36 -24 l32 -1 0 59 c0 32 -2 58 -5 58 -3 0 -5 -11 -5 -24z m-5 -56 c0 -16
-6 -26 -18 -28 -19 -4 -32 20 -23 44 9 25 41 13 41 -16z"/>
<path d="M1771 3563 c1 -32 4 -49 6 -38 2 11 14 25 26 30 14 7 22 19 22 35 0
20 -6 26 -27 28 -28 3 -28 3 -27 -55z m44 22 c0 -11 -8 -21 -17 -23 -14 -3
-18 3 -18 23 0 20 4 26 18 23 9 -2 17 -12 17 -23z"/>
<path d="M1873 3584 c20 -6 23 -24 3 -24 -7 0 -20 -8 -27 -17 -11 -15 -11 -16
1 -5 21 18 38 15 43 -10 3 -13 4 -5 4 17 -2 32 -6 40 -22 42 -16 1 -16 1 -2
-3z"/>
<path d="M1936 3581 c-4 -5 3 -7 14 -4 23 6 26 13 6 13 -8 0 -17 -4 -20 -9z"/>
<path d="M2008 3583 c6 -2 18 -2 25 0 6 3 1 5 -13 5 -14 0 -19 -2 -12 -5z"/>
<path d="M2107 3583 c-4 -3 -7 -11 -7 -17 0 -6 5 -5 12 2 6 6 9 14 7 17 -3 3
-9 2 -12 -2z"/>
<path d="M2190 3575 c-26 -31 13 -82 44 -56 21 17 21 57 0 65 -23 9 -30 8 -44
-9z m45 -25 c0 -16 -6 -26 -18 -28 -19 -4 -32 20 -23 44 9 25 41 13 41 -16z"/>
<path d="M2008 3554 c12 -9 22 -20 22 -25 0 -4 -10 -10 -22 -12 -20 -5 -20 -5
2 -4 35 3 37 31 3 45 -28 12 -28 12 -5 -4z"/>
<path d="M1943 3549 c9 -5 17 -14 17 -19 0 -5 -8 -11 -17 -13 -17 -4 -17 -5 0
-6 22 -1 34 28 16 40 -8 5 -18 9 -24 9 -5 -1 -2 -5 8 -11z"/>
<path d="M2071 3550 c0 -8 3 -21 8 -28 7 -11 9 -10 14 3 4 9 3 13 -2 10 -5 -3
-12 3 -14 12 -3 13 -5 14 -6 3z"/>
<path d="M2136 3534 c-4 -9 -4 -19 -1 -22 2 -3 7 3 11 12 4 9 4 19 1 22 -2 3
-7 -3 -11 -12z"/>
<path d="M1858 3513 c7 -3 16 -2 19 1 4 3 -2 6 -13 5 -11 0 -14 -3 -6 -6z"/>
<path d="M4234 3005 c-4 -9 -2 -21 4 -27 15 -15 44 -1 40 19 -4 23 -36 29 -44
8z"/>
<path d="M4844 2576 c-8 -22 3 -49 19 -43 6 2 12 14 12 27 0 27 -22 39 -31 16z"/>
<path d="M3830 2575 c-11 -13 -11 -19 3 -33 20 -19 41 -5 35 24 -4 24 -22 28
-38 9z"/>
<path d="M3976 2575 c-8 -21 3 -45 20 -45 9 0 14 11 14 30 0 32 -23 42 -34 15z"/>
<path d="M4074 2576 c-8 -22 3 -49 19 -43 6 2 12 14 12 27 0 27 -22 39 -31 16z"/>
<path d="M4277 2583 c-4 -3 -7 -17 -7 -30 0 -33 24 -24 28 10 3 26 -7 35 -21
20z"/>
<path d="M4357 2554 c-8 -8 1 -24 14 -24 5 0 9 7 9 15 0 15 -12 20 -23 9z"/>
<path d="M4694 2576 c-8 -22 3 -49 19 -43 6 2 12 14 12 27 0 27 -22 39 -31 16z"/>
<path d="M6301 1743 c1 -27 4 -38 6 -25 5 27 20 29 28 2 3 -11 11 -20 16 -20
5 0 2 11 -6 24 -12 18 -13 25 -4 28 20 7 2 38 -21 38 -17 0 -20 -6 -19 -47z
m37 25 c-6 -18 -28 -21 -28 -4 0 9 7 16 16 16 9 0 14 -5 12 -12z"/>
<path d="M6370 1745 c0 -43 1 -45 28 -44 23 2 24 2 5 6 -27 5 -31 30 -5 36 16
4 16 5 0 6 -10 0 -18 7 -18 15 0 8 8 17 18 19 13 4 11 5 -5 6 -21 1 -23 -4
-23 -44z"/>
<path d="M6446 1774 c-31 -30 -9 -80 31 -72 25 5 31 48 6 47 -10 0 -13 -3 -5
-6 22 -9 14 -35 -10 -31 -33 4 -31 48 2 65 17 9 20 13 8 13 -9 0 -24 -7 -32
-16z"/>
<path d="M6523 1745 c0 -27 2 -38 4 -22 2 15 2 37 0 50 -2 12 -4 0 -4 -28z"/>
<path d="M6560 1776 c-9 -12 -7 -17 9 -28 26 -16 27 -35 4 -41 -17 -4 -17 -5
0 -6 29 -2 33 29 6 50 l-24 18 25 10 c15 6 19 10 9 10 -9 1 -22 -5 -29 -13z"/>
<path d="M6623 1783 c12 -3 17 -16 19 -46 l1 -42 4 40 c3 22 10 43 16 47 7 4
-4 7 -23 7 -19 -1 -27 -3 -17 -6z"/>
<path d="M6690 1745 c0 -40 2 -45 23 -44 16 1 18 2 5 6 -21 5 -24 29 -5 36 10
4 10 6 0 6 -19 1 -15 29 5 34 13 4 11 5 -5 6 -21 1 -23 -4 -23 -44z"/>
<path d="M6751 1743 c1 -27 4 -38 6 -25 5 27 20 29 28 2 3 -11 11 -20 16 -20
5 0 2 11 -6 24 -12 18 -13 25 -4 28 20 7 2 38 -21 38 -17 0 -20 -6 -19 -47z
m37 25 c-6 -18 -28 -21 -28 -4 0 9 7 16 16 16 9 0 14 -5 12 -12z"/>
<path d="M1660 1755 c0 -32 4 -45 14 -45 17 0 46 27 46 41 0 23 -22 49 -40 49
-17 0 -20 -7 -20 -45z"/>
<path d="M1774 1756 c-8 -22 3 -49 19 -43 6 2 12 14 12 27 0 27 -22 39 -31 16z"/>
<path d="M2185 1729 c-4 -6 -5 -13 -2 -16 7 -7 27 6 27 18 0 12 -17 12 -25 -2z"/>
<path d="M2340 1760 c0 -5 7 -10 16 -10 8 0 12 5 9 10 -3 6 -10 10 -16 10 -5
0 -9 -4 -9 -10z"/>
<path d="M2465 1729 c-4 -6 -5 -13 -2 -16 7 -7 27 6 27 18 0 12 -17 12 -25 -2z"/>
<path d="M2685 1729 c-4 -6 -5 -13 -2 -16 7 -7 27 6 27 18 0 12 -17 12 -25 -2z"/>
<path d="M2914 1756 c-8 -22 3 -49 19 -43 6 2 12 14 12 27 0 27 -22 39 -31 16z"/>
<path d="M2580 260 c0 -15 5 -20 18 -18 9 2 17 10 17 18 0 8 -8 16 -17 18 -13
2 -18 -3 -18 -18z"/>
<path d="M2580 200 c0 -13 7 -20 20 -20 13 0 20 7 20 20 0 13 -7 20 -20 20
-13 0 -20 -7 -20 -20z"/>
<path d="M1855 230 c-3 -5 3 -10 14 -10 12 0 21 5 21 10 0 6 -6 10 -14 10 -8
0 -18 -4 -21 -10z"/>
<path d="M2020 190 c0 -5 4 -10 9 -10 6 0 13 5 16 10 3 6 -1 10 -9 10 -9 0
-16 -4 -16 -10z"/>
<path d="M2195 230 c-3 -5 3 -10 15 -10 12 0 18 5 15 10 -3 6 -10 10 -15 10
-5 0 -12 -4 -15 -10z"/>
<path d="M2705 230 c-3 -5 3 -10 15 -10 12 0 18 5 15 10 -3 6 -10 10 -15 10
-5 0 -12 -4 -15 -10z"/>
<path d="M2880 190 c0 -5 4 -10 9 -10 6 0 13 5 16 10 3 6 -1 10 -9 10 -9 0
-16 -4 -16 -10z"/>
<path d="M3130 230 c0 -5 7 -10 15 -10 8 0 15 5 15 10 0 6 -7 10 -15 10 -8 0
-15 -4 -15 -10z"/>
<path d="M3564 225 c-8 -21 3 -48 19 -43 19 7 22 58 2 58 -8 0 -18 -7 -21 -15z"/>
<path d="M3744 225 c-8 -21 2 -45 20 -45 15 0 25 27 19 48 -6 17 -32 15 -39
-3z"/>
<path d="M3975 190 c-3 -5 1 -10 9 -10 9 0 16 5 16 10 0 6 -4 10 -9 10 -6 0
-13 -4 -16 -10z"/>
<path d="M4165 230 c-3 -5 3 -10 14 -10 12 0 21 5 21 10 0 6 -6 10 -14 10 -8
0 -18 -4 -21 -10z"/>
<path d="M8825 60 c17 -19 19 -19 37 -4 24 23 24 24 -19 24 -36 0 -36 0 -18
-20z"/>
</g>
</svg>
